# xmcd
#
# Track frame offsets:
#	150
#	16924
#	29359
#	40831
#	53680
#	65743
#	78486
#	92798
#	104445
#	118177
#	129631
#	142612
#	155669
#	169512
#	183542
#	197115
#	211504
#	224519
#	237121
#	252518
#	265727
#	281943
#	295427
#	307808
#	323932
#	336633
#
# Disc length: 4673 seconds
#
# Revision: 2
# Processed by: cddbd v1.5.2PL0 Copyright (c) Steve Scherf et al.
# Submitted via: audiograbber 1.83.01
#
DISCID=8a123f1a
DTITLE=Various Artist - As Good As It Gets: Country Blues [CD 2/2)
DYEAR=2000
DGENRE=Country Blues
TTITLE0=Cannons Jug Stompers - Minglewood Blues
TTITLE1=Blind Blake - Come on Boys Let's Do That Messin' Around
TTITLE2=Leadbelly - Rock Island Line
TTITLE3=Lonnie Johnson - Blues in G
TTITLE4=Robert Johnson - Cross Road Blues
TTITLE5=Blind Boy Fuller - Untrue Blues
TTITLE6=Hammie Nixon - Drop Down Mama
TTITLE7=Brownie McGhee - Dealing With the Devil
TTITLE8=Blind Gary Davis - Cross and Evil Woman Blues
TTITLE9=Memphis Jug Band - K.C. Moan
TTITLE10=Memphis Minnie - Black Rat Swing
TTITLE11=Mississippi John Hurt - Nobody's Dirty Business
TTITLE12=Josh White - Good Gal
TTITLE13=Blind Willie McTell - Stomp Down Rider
TTITLE14=Blind Lemon Jefferson - Black Snake Moan
TTITLE15=Charley Patton - A Spoonful Blues
TTITLE16=Big Bill Broonzy - Keep Your Hands off Her
TTITLE17=Roosevelt Sykes - Night Time Is the Right Time
TTITLE18=Alger Texas Alexander - The Risin' Sun
TTITLE19=Leroy Carr - Mean Mistreatin' Mama
TTITLE20=Bessie Smith - Beale Street Mama
TTITLE21=Skip James - Devil Got My Woman
TTITLE22=Little Brother Montgomery - The First Time I Met the Blues
TTITLE23=Tommy Johnson - Cool Drink of Water Blues
TTITLE24=Tommy McClennan - Cross Cut Saw Blues
TTITLE25=Furry Lewis - Dry Land Blues
EXTD=DISKY. DO 247302. Printed in EU.
EXTT0=
EXTT1=
EXTT2=
EXTT3=
EXTT4=
EXTT5=
EXTT6=
EXTT7=
EXTT8=
EXTT9=
EXTT10=
EXTT11=
EXTT12=
EXTT13=
EXTT14=
EXTT15=
EXTT16=
EXTT17=
EXTT18=
EXTT19=
EXTT20=
EXTT21=
EXTT22=
EXTT23=
EXTT24=
EXTT25=
PLAYORDER=
